<svg width="30" height="26" viewBox="0 0 30 26" fill="none" xmlns="http://www.w3.org/2000/svg">
<path d="M15 26C14.7098 26 14.4643 25.8984 14.2634 25.6953L3.81696 15.5052C3.70536 15.4149 3.5519 15.2682 3.35658 15.0651C3.16127 14.862 2.85156 14.4924 2.42746 13.9564C2.00335 13.4204 1.62388 12.8702 1.28906 12.306C0.954241 11.7418 0.655692 11.059 0.393415 10.2578C0.131138 9.4566 0 8.67795 0 7.92188C0 5.43924 0.708705 3.49826 2.12612 2.09896C3.54353 0.699653 5.50223 0 8.00223 0C8.6942 0 9.40011 0.121311 10.12 0.363932C10.8398 0.606554 11.5095 0.933811 12.1289 1.3457C12.7483 1.7576 13.2812 2.1441 13.7277 2.50521C14.1741 2.86632 14.5982 3.25 15 3.65625C15.4018 3.25 15.8259 2.86632 16.2723 2.50521C16.7187 2.1441 17.2517 1.7576 17.8711 1.3457C18.4905 0.933811 19.1602 0.606554 19.88 0.363932C20.5999 0.121311 21.3058 0 21.9978 0C24.4978 0 26.4565 0.699653 27.8739 2.09896C29.2913 3.49826 30 5.43924 30 7.92188C30 10.4158 28.7221 12.9549 26.1663 15.5391L15.7366 25.6953C15.5357 25.8984 15.2902 26 15 26Z" fill="white"/>
</svg>
